%TF.GenerationSoftware,KiCad,Pcbnew,8.0.8*%
%TF.CreationDate,2025-02-19T17:07:23+00:00*%
%TF.ProjectId,MEMLSensorBoard,4d454d4c-5365-46e7-936f-72426f617264,rev?*%
%TF.SameCoordinates,Original*%
%TF.FileFunction,Soldermask,Top*%
%TF.FilePolarity,Negative*%
%FSLAX46Y46*%
G04 Gerber Fmt 4.6, Leading zero omitted, Abs format (unit mm)*
G04 Created by KiCad (PCBNEW 8.0.8) date 2025-02-19 17:07:23*
%MOMM*%
%LPD*%
G01*
G04 APERTURE LIST*
G04 Aperture macros list*
%AMRoundRect*
0 Rectangle with rounded corners*
0 $1 Rounding radius*
0 $2 $3 $4 $5 $6 $7 $8 $9 X,Y pos of 4 corners*
0 Add a 4 corners polygon primitive as box body*
4,1,4,$2,$3,$4,$5,$6,$7,$8,$9,$2,$3,0*
0 Add four circle primitives for the rounded corners*
1,1,$1+$1,$2,$3*
1,1,$1+$1,$4,$5*
1,1,$1+$1,$6,$7*
1,1,$1+$1,$8,$9*
0 Add four rect primitives between the rounded corners*
20,1,$1+$1,$2,$3,$4,$5,0*
20,1,$1+$1,$4,$5,$6,$7,0*
20,1,$1+$1,$6,$7,$8,$9,0*
20,1,$1+$1,$8,$9,$2,$3,0*%
G04 Aperture macros list end*
%ADD10RoundRect,0.200000X0.200000X0.275000X-0.200000X0.275000X-0.200000X-0.275000X0.200000X-0.275000X0*%
%ADD11RoundRect,0.225000X-0.225000X-0.250000X0.225000X-0.250000X0.225000X0.250000X-0.225000X0.250000X0*%
%ADD12RoundRect,0.102000X-0.825000X-0.825000X0.825000X-0.825000X0.825000X0.825000X-0.825000X0.825000X0*%
%ADD13C,1.854000*%
%ADD14C,1.600000*%
%ADD15O,1.600000X1.600000*%
%ADD16C,2.000000*%
%ADD17C,4.000000*%
%ADD18R,1.700000X1.700000*%
%ADD19O,1.700000X1.700000*%
%ADD20RoundRect,0.200000X-0.200000X-0.275000X0.200000X-0.275000X0.200000X0.275000X-0.200000X0.275000X0*%
%ADD21RoundRect,0.100000X-0.637500X-0.100000X0.637500X-0.100000X0.637500X0.100000X-0.637500X0.100000X0*%
%ADD22C,3.200000*%
%ADD23RoundRect,0.225000X0.225000X0.250000X-0.225000X0.250000X-0.225000X-0.250000X0.225000X-0.250000X0*%
%ADD24RoundRect,0.250000X0.600000X-0.600000X0.600000X0.600000X-0.600000X0.600000X-0.600000X-0.600000X0*%
%ADD25C,1.700000*%
%ADD26RoundRect,0.112500X-0.187500X-0.112500X0.187500X-0.112500X0.187500X0.112500X-0.187500X0.112500X0*%
%ADD27RoundRect,0.250000X0.250000X0.475000X-0.250000X0.475000X-0.250000X-0.475000X0.250000X-0.475000X0*%
%ADD28RoundRect,0.200000X-0.275000X0.200000X-0.275000X-0.200000X0.275000X-0.200000X0.275000X0.200000X0*%
G04 APERTURE END LIST*
D10*
%TO.C,R32*%
X203825000Y-119500000D03*
X202175000Y-119500000D03*
%TD*%
%TO.C,R31*%
X203500000Y-105000000D03*
X201850000Y-105000000D03*
%TD*%
%TO.C,R30*%
X204075000Y-93250000D03*
X202425000Y-93250000D03*
%TD*%
%TO.C,R29*%
X203900000Y-79250000D03*
X202250000Y-79250000D03*
%TD*%
%TO.C,R28*%
X204325000Y-67000000D03*
X202675000Y-67000000D03*
%TD*%
%TO.C,R27*%
X203825000Y-53500000D03*
X202175000Y-53500000D03*
%TD*%
%TO.C,R26*%
X204325000Y-41000000D03*
X202675000Y-41000000D03*
%TD*%
%TO.C,R25*%
X203825000Y-27500000D03*
X202175000Y-27500000D03*
%TD*%
D11*
%TO.C,C20*%
X229095000Y-109220000D03*
X230645000Y-109220000D03*
%TD*%
D12*
%TO.C,RV11*%
X212050000Y-97828998D03*
D13*
X207050000Y-95328998D03*
X212050000Y-92828998D03*
%TD*%
D12*
%TO.C,RV5*%
X212050000Y-57902996D03*
D13*
X207050000Y-55402996D03*
X212050000Y-52902996D03*
%TD*%
D14*
%TO.C,C7*%
X177800000Y-88265000D03*
X172800000Y-88265000D03*
%TD*%
%TO.C,R3*%
X187960000Y-46512996D03*
D15*
X187960000Y-38892996D03*
%TD*%
D14*
%TO.C,C6*%
X155020000Y-88265000D03*
X160020000Y-88265000D03*
%TD*%
D16*
%TO.C,J9*%
X221615000Y-124460000D03*
X221615000Y-119458998D03*
%TD*%
D11*
%TO.C,C1*%
X166230000Y-78105000D03*
X167780000Y-78105000D03*
%TD*%
D17*
%TO.C,U1*%
X142720000Y-33020000D03*
X142720000Y-63020000D03*
X172720000Y-33020000D03*
X172720000Y-63020000D03*
D18*
X148845000Y-26520000D03*
D19*
X151385000Y-26520000D03*
X153925000Y-26520000D03*
X156465000Y-26520000D03*
X159005000Y-26520000D03*
X161545000Y-26520000D03*
X164085000Y-26520000D03*
X166625000Y-26520000D03*
%TD*%
D12*
%TO.C,RV13*%
X212050000Y-111163998D03*
D13*
X207050000Y-108663998D03*
X212050000Y-106163998D03*
%TD*%
D11*
%TO.C,C15*%
X229095000Y-45085000D03*
X230645000Y-45085000D03*
%TD*%
D20*
%TO.C,R18*%
X203350000Y-49000000D03*
X205000000Y-49000000D03*
%TD*%
D11*
%TO.C,C19*%
X229095000Y-96520000D03*
X230645000Y-96520000D03*
%TD*%
D20*
%TO.C,R24*%
X202175000Y-124750000D03*
X203825000Y-124750000D03*
%TD*%
%TO.C,R12*%
X195835000Y-101043998D03*
X197485000Y-101043998D03*
%TD*%
D21*
%TO.C,U3*%
X163820000Y-105955000D03*
X163820000Y-106605000D03*
X163820000Y-107255000D03*
X163820000Y-107905000D03*
X163820000Y-108555000D03*
X163820000Y-109205000D03*
X163820000Y-109855000D03*
X169545000Y-109855000D03*
X169545000Y-109205000D03*
X169545000Y-108555000D03*
X169545000Y-107905000D03*
X169545000Y-107255000D03*
X169545000Y-106605000D03*
X169545000Y-105955000D03*
%TD*%
D11*
%TO.C,C16*%
X229095000Y-57150000D03*
X230645000Y-57150000D03*
%TD*%
%TO.C,C17*%
X229095000Y-71120000D03*
X230645000Y-71120000D03*
%TD*%
D22*
%TO.C,REF\u002A\u002A*%
X119380000Y-124460000D03*
%TD*%
D14*
%TO.C,C5*%
X160020000Y-80010000D03*
X155020000Y-80010000D03*
%TD*%
D20*
%TO.C,R10*%
X195835000Y-87073998D03*
X197485000Y-87073998D03*
%TD*%
D16*
%TO.C,J5*%
X221615000Y-71198998D03*
X221615000Y-66197996D03*
%TD*%
D14*
%TO.C,R7*%
X187960000Y-72547996D03*
D15*
X187960000Y-64927996D03*
%TD*%
D12*
%TO.C,RV1*%
X212090000Y-32502996D03*
D13*
X207090000Y-30002996D03*
X212090000Y-27502996D03*
%TD*%
D11*
%TO.C,C13*%
X229095000Y-118110000D03*
X230645000Y-118110000D03*
%TD*%
%TO.C,C2*%
X166047500Y-104140000D03*
X167597500Y-104140000D03*
%TD*%
D16*
%TO.C,J2*%
X221615000Y-32503497D03*
X221615000Y-27502495D03*
%TD*%
%TO.C,J7*%
X221615000Y-97829499D03*
X221615000Y-92828497D03*
%TD*%
D11*
%TO.C,C3*%
X147815000Y-83185000D03*
X149365000Y-83185000D03*
%TD*%
D23*
%TO.C,C14*%
X230645000Y-33655000D03*
X229095000Y-33655000D03*
%TD*%
D12*
%TO.C,RV12*%
X199350000Y-97828998D03*
D13*
X194350000Y-95328998D03*
X199350000Y-92828998D03*
%TD*%
D18*
%TO.C,J1*%
X134620000Y-38100000D03*
D19*
X134620000Y-40640000D03*
X134620000Y-43180000D03*
X134620000Y-45720000D03*
X134620000Y-48260000D03*
X134620000Y-50800000D03*
X134620000Y-53340000D03*
X134620000Y-55880000D03*
X134620000Y-58420000D03*
X134620000Y-60960000D03*
X134620000Y-63500000D03*
X134620000Y-66040000D03*
X134620000Y-68580000D03*
X134620000Y-71120000D03*
X134620000Y-73660000D03*
X134620000Y-76200000D03*
X134620000Y-78740000D03*
X134620000Y-81280000D03*
X134620000Y-83820000D03*
X134620000Y-86360000D03*
X134620000Y-88900000D03*
X134620000Y-91440000D03*
X134620000Y-93980000D03*
X134620000Y-96520000D03*
X134620000Y-99060000D03*
X134620000Y-101600000D03*
X134620000Y-104140000D03*
X134620000Y-106680000D03*
X134620000Y-109220000D03*
X134620000Y-111760000D03*
X134620000Y-114300000D03*
X134620000Y-116840000D03*
X134620000Y-119380000D03*
X134620000Y-121920000D03*
X134620000Y-124460000D03*
%TD*%
D14*
%TO.C,C8*%
X177800000Y-79375000D03*
X172800000Y-79375000D03*
%TD*%
D12*
%TO.C,RV8*%
X199390000Y-71277996D03*
D13*
X194390000Y-68777996D03*
X199390000Y-66277996D03*
%TD*%
D14*
%TO.C,R13*%
X187960000Y-111838998D03*
D15*
X187960000Y-104218998D03*
%TD*%
D20*
%TO.C,R14*%
X195835000Y-115013998D03*
X197485000Y-115013998D03*
%TD*%
%TO.C,R19*%
X202675000Y-60500000D03*
X204325000Y-60500000D03*
%TD*%
D22*
%TO.C,REF\u002A\u002A*%
X230505000Y-123825000D03*
%TD*%
D14*
%TO.C,C9*%
X153710000Y-100965000D03*
X158710000Y-100965000D03*
%TD*%
%TO.C,C11*%
X177760000Y-113030000D03*
X172760000Y-113030000D03*
%TD*%
D11*
%TO.C,C18*%
X229095000Y-83185000D03*
X230645000Y-83185000D03*
%TD*%
D14*
%TO.C,R9*%
X187960000Y-85168998D03*
D15*
X187960000Y-77548998D03*
%TD*%
D24*
%TO.C,J10*%
X142875000Y-123190000D03*
D25*
X142875000Y-120650000D03*
X145415000Y-123190000D03*
X145415000Y-120650000D03*
X147954999Y-123190000D03*
X147955000Y-120650000D03*
X150495000Y-123190000D03*
X150495000Y-120650000D03*
%TD*%
D12*
%TO.C,RV9*%
X212050000Y-83858998D03*
D13*
X207050000Y-81358998D03*
X212050000Y-78858998D03*
%TD*%
D20*
%TO.C,R4*%
X195835000Y-49052996D03*
X197485000Y-49052996D03*
%TD*%
D16*
%TO.C,J8*%
X221615000Y-111164499D03*
X221615000Y-106163497D03*
%TD*%
D26*
%TO.C,D1*%
X148175000Y-114300000D03*
X150275000Y-114300000D03*
%TD*%
D14*
%TO.C,C10*%
X158710000Y-108585000D03*
X153710000Y-108585000D03*
%TD*%
D12*
%TO.C,RV7*%
X212050000Y-71237996D03*
D13*
X207050000Y-68737996D03*
X212050000Y-66237996D03*
%TD*%
D12*
%TO.C,RV3*%
X212090000Y-45202996D03*
D13*
X207090000Y-42702996D03*
X212090000Y-40202996D03*
%TD*%
D27*
%TO.C,C4*%
X154619999Y-114300000D03*
X152720001Y-114300000D03*
%TD*%
D12*
%TO.C,RV6*%
X199350000Y-57902996D03*
D13*
X194350000Y-55402996D03*
X199350000Y-52902996D03*
%TD*%
D28*
%TO.C,R16*%
X191000000Y-124175000D03*
X191000000Y-125825000D03*
%TD*%
D20*
%TO.C,R8*%
X196215000Y-75087996D03*
X197865000Y-75087996D03*
%TD*%
%TO.C,R2*%
X196025000Y-35560000D03*
X197675000Y-35560000D03*
%TD*%
D14*
%TO.C,R1*%
X187960000Y-33812996D03*
D15*
X187960000Y-26192996D03*
%TD*%
D12*
%TO.C,RV10*%
X199350000Y-83858998D03*
D13*
X194350000Y-81358998D03*
X199350000Y-78858998D03*
%TD*%
D12*
%TO.C,RV4*%
X199350000Y-45202996D03*
D13*
X194350000Y-42702996D03*
X199350000Y-40202996D03*
%TD*%
D20*
%TO.C,R6*%
X196025000Y-60482996D03*
X197675000Y-60482996D03*
%TD*%
D21*
%TO.C,U4*%
X141917500Y-84720000D03*
X141917500Y-85370000D03*
X141917500Y-86020000D03*
X141917500Y-86670000D03*
X141917500Y-87320000D03*
X141917500Y-87970000D03*
X141917500Y-88620000D03*
X141917500Y-89270000D03*
X147642500Y-89270000D03*
X147642500Y-88620000D03*
X147642500Y-87970000D03*
X147642500Y-87320000D03*
X147642500Y-86670000D03*
X147642500Y-86020000D03*
X147642500Y-85370000D03*
X147642500Y-84720000D03*
%TD*%
D12*
%TO.C,RV16*%
X198755000Y-124538998D03*
D13*
X193755000Y-122038998D03*
X198755000Y-119538998D03*
%TD*%
D20*
%TO.C,R20*%
X203175000Y-75000000D03*
X204825000Y-75000000D03*
%TD*%
D12*
%TO.C,RV14*%
X199350000Y-111163998D03*
D13*
X194350000Y-108663998D03*
X199350000Y-106163998D03*
%TD*%
D14*
%TO.C,R11*%
X187960000Y-98503998D03*
D15*
X187960000Y-90883998D03*
%TD*%
D18*
%TO.C,J12*%
X127635000Y-26670000D03*
D19*
X130175000Y-26670000D03*
X132714999Y-26670000D03*
X135255000Y-26670000D03*
%TD*%
D12*
%TO.C,RV15*%
X212090000Y-124538998D03*
D13*
X207090000Y-122038998D03*
X212090000Y-119538998D03*
%TD*%
D21*
%TO.C,U2*%
X163700000Y-81870000D03*
X163700000Y-82520000D03*
X163700000Y-83170000D03*
X163700000Y-83820000D03*
X163700000Y-84470000D03*
X163700000Y-85120000D03*
X163700000Y-85770000D03*
X169425000Y-85770000D03*
X169425000Y-85120000D03*
X169425000Y-84470000D03*
X169425000Y-83820000D03*
X169425000Y-83170000D03*
X169425000Y-82520000D03*
X169425000Y-81870000D03*
%TD*%
D20*
%TO.C,R21*%
X202500000Y-86250000D03*
X204150000Y-86250000D03*
%TD*%
D14*
%TO.C,R15*%
X187960000Y-125730000D03*
D15*
X187960000Y-118110000D03*
%TD*%
D16*
%TO.C,J3*%
X221397000Y-44701497D03*
X221397000Y-39700495D03*
%TD*%
D24*
%TO.C,J11*%
X162560000Y-123307500D03*
D25*
X162560000Y-120767500D03*
X165100000Y-123307500D03*
X165100000Y-120767500D03*
X167640000Y-123307500D03*
X167640000Y-120767500D03*
X170180000Y-123307500D03*
X170180000Y-120767500D03*
X172720000Y-123307500D03*
X172720000Y-120767500D03*
X175260000Y-123307500D03*
X175260000Y-120767500D03*
X177800000Y-123307500D03*
X177800000Y-120767500D03*
X180340000Y-123307500D03*
X180340000Y-120767500D03*
%TD*%
D14*
%TO.C,R5*%
X187960000Y-60960000D03*
D15*
X187960000Y-53340000D03*
%TD*%
D20*
%TO.C,R22*%
X203425000Y-101000000D03*
X205075000Y-101000000D03*
%TD*%
D14*
%TO.C,C12*%
X177760000Y-103505000D03*
X172760000Y-103505000D03*
%TD*%
D22*
%TO.C,REF\u002A\u002A*%
X120015000Y-27305000D03*
%TD*%
%TO.C,REF\u002A\u002A*%
X180975000Y-27305000D03*
%TD*%
D16*
%TO.C,J6*%
X221615000Y-84494499D03*
X221615000Y-79493497D03*
%TD*%
D12*
%TO.C,RV2*%
X199350000Y-32502996D03*
D13*
X194350000Y-30002996D03*
X199350000Y-27502996D03*
%TD*%
D22*
%TO.C,REF\u002A\u002A*%
X229870000Y-27940000D03*
%TD*%
D16*
%TO.C,J4*%
X221615000Y-57903497D03*
X221615000Y-52902495D03*
%TD*%
D20*
%TO.C,R17*%
X203175000Y-35500000D03*
X204825000Y-35500000D03*
%TD*%
%TO.C,R23*%
X202925000Y-114000000D03*
X204575000Y-114000000D03*
%TD*%
M02*
