%TF.GenerationSoftware,KiCad,Pcbnew,8.0.8*%
%TF.CreationDate,2025-02-19T17:07:23+00:00*%
%TF.ProjectId,MEMLSensorBoard,4d454d4c-5365-46e7-936f-72426f617264,rev?*%
%TF.SameCoordinates,Original*%
%TF.FileFunction,Legend,Bot*%
%TF.FilePolarity,Positive*%
%FSLAX46Y46*%
G04 Gerber Fmt 4.6, Leading zero omitted, Abs format (unit mm)*
G04 Created by KiCad (PCBNEW 8.0.8) date 2025-02-19 17:07:23*
%MOMM*%
%LPD*%
G01*
G04 APERTURE LIST*
G04 Aperture macros list*
%AMRoundRect*
0 Rectangle with rounded corners*
0 $1 Rounding radius*
0 $2 $3 $4 $5 $6 $7 $8 $9 X,Y pos of 4 corners*
0 Add a 4 corners polygon primitive as box body*
4,1,4,$2,$3,$4,$5,$6,$7,$8,$9,$2,$3,0*
0 Add four circle primitives for the rounded corners*
1,1,$1+$1,$2,$3*
1,1,$1+$1,$4,$5*
1,1,$1+$1,$6,$7*
1,1,$1+$1,$8,$9*
0 Add four rect primitives between the rounded corners*
20,1,$1+$1,$2,$3,$4,$5,0*
20,1,$1+$1,$4,$5,$6,$7,0*
20,1,$1+$1,$6,$7,$8,$9,0*
20,1,$1+$1,$8,$9,$2,$3,0*%
G04 Aperture macros list end*
%ADD10C,0.000000*%
%ADD11RoundRect,0.102000X-0.825000X-0.825000X0.825000X-0.825000X0.825000X0.825000X-0.825000X0.825000X0*%
%ADD12C,1.854000*%
%ADD13C,1.600000*%
%ADD14O,1.600000X1.600000*%
%ADD15C,2.000000*%
%ADD16C,4.000000*%
%ADD17R,1.700000X1.700000*%
%ADD18O,1.700000X1.700000*%
%ADD19C,3.200000*%
%ADD20RoundRect,0.250000X0.600000X-0.600000X0.600000X0.600000X-0.600000X0.600000X-0.600000X-0.600000X0*%
%ADD21C,1.700000*%
G04 APERTURE END LIST*
D10*
G36*
X124794296Y-86000000D02*
G01*
X124939550Y-86011082D01*
X125082728Y-86029329D01*
X125223649Y-86054562D01*
X125362129Y-86086599D01*
X125497986Y-86125259D01*
X125631040Y-86170361D01*
X125761106Y-86221725D01*
X125888004Y-86279169D01*
X126011551Y-86342512D01*
X126131565Y-86411574D01*
X126247863Y-86486172D01*
X126360264Y-86566128D01*
X126468586Y-86651258D01*
X126572645Y-86741382D01*
X126672261Y-86836320D01*
X126767251Y-86935890D01*
X126857432Y-87039911D01*
X126942624Y-87148203D01*
X127022642Y-87260584D01*
X127097306Y-87376873D01*
X127166433Y-87496889D01*
X127229841Y-87620452D01*
X127287348Y-87747380D01*
X127338772Y-87877492D01*
X127383930Y-88010608D01*
X127422640Y-88146545D01*
X127454721Y-88285124D01*
X127479990Y-88426164D01*
X127498264Y-88569482D01*
X127509363Y-88714899D01*
X127513103Y-88862233D01*
X127509369Y-89009382D01*
X127498288Y-89154636D01*
X127480040Y-89297815D01*
X127454808Y-89438736D01*
X127422771Y-89577217D01*
X127384111Y-89713075D01*
X127339009Y-89846129D01*
X127287645Y-89976197D01*
X127230202Y-90103095D01*
X127166859Y-90226643D01*
X127097797Y-90346657D01*
X127023199Y-90462957D01*
X126943244Y-90575358D01*
X126858115Y-90683681D01*
X126767990Y-90787741D01*
X126673053Y-90887358D01*
X126573483Y-90982348D01*
X126469463Y-91072530D01*
X126361171Y-91157722D01*
X126248791Y-91237741D01*
X126132503Y-91312406D01*
X126012487Y-91381534D01*
X125888924Y-91444942D01*
X125761997Y-91502450D01*
X125631885Y-91553874D01*
X125498771Y-91599032D01*
X125362833Y-91637743D01*
X125224255Y-91669824D01*
X125083216Y-91695093D01*
X124939898Y-91713368D01*
X124794482Y-91724466D01*
X124647148Y-91728206D01*
X124499999Y-91724472D01*
X124354744Y-91713391D01*
X124211565Y-91695144D01*
X124070644Y-91669911D01*
X123932163Y-91637874D01*
X123796304Y-91599214D01*
X123663250Y-91554111D01*
X123533183Y-91502747D01*
X123406285Y-91445303D01*
X123282737Y-91381960D01*
X123162723Y-91312899D01*
X123046424Y-91238300D01*
X122934023Y-91158345D01*
X122825701Y-91073214D01*
X122721641Y-90983090D01*
X122622025Y-90888152D01*
X122527035Y-90788582D01*
X122436853Y-90684560D01*
X122351661Y-90576268D01*
X122271643Y-90463887D01*
X122196978Y-90347598D01*
X122127851Y-90227581D01*
X122064443Y-90104018D01*
X122006936Y-89977090D01*
X121955512Y-89846978D01*
X121910354Y-89713862D01*
X121871644Y-89577924D01*
X121839563Y-89439344D01*
X121814294Y-89298305D01*
X121796020Y-89154985D01*
X121784921Y-89009568D01*
X121781181Y-88862233D01*
X121784921Y-88714899D01*
X121796020Y-88569482D01*
X121814295Y-88426164D01*
X121839564Y-88285124D01*
X121871645Y-88146545D01*
X121910355Y-88010608D01*
X121955514Y-87877492D01*
X122006938Y-87747380D01*
X122064445Y-87620452D01*
X122127854Y-87496889D01*
X122196981Y-87376873D01*
X122271646Y-87260584D01*
X122351665Y-87148203D01*
X122436857Y-87039911D01*
X122527039Y-86935890D01*
X122622029Y-86836320D01*
X122721646Y-86741382D01*
X122825706Y-86651258D01*
X122934028Y-86566128D01*
X123046429Y-86486172D01*
X123162728Y-86411574D01*
X123282743Y-86342512D01*
X123406290Y-86279169D01*
X123533188Y-86221725D01*
X123663255Y-86170361D01*
X123796309Y-86125259D01*
X123932167Y-86086599D01*
X124070647Y-86054562D01*
X124211568Y-86029329D01*
X124354746Y-86011082D01*
X124500000Y-86000000D01*
X124647148Y-85996266D01*
X124794296Y-86000000D01*
G37*
G36*
X215310300Y-48845167D02*
G01*
X215993456Y-48897285D01*
X216666794Y-48983105D01*
X217329461Y-49101775D01*
X217980606Y-49252442D01*
X218619374Y-49434252D01*
X219244912Y-49646352D01*
X219856368Y-49887889D01*
X220452889Y-50158011D01*
X221033621Y-50455864D01*
X221597711Y-50780596D01*
X222144307Y-51131352D01*
X222672555Y-51507281D01*
X223181602Y-51907528D01*
X223670596Y-52331242D01*
X224138682Y-52777568D01*
X224585009Y-53245655D01*
X225008723Y-53734648D01*
X225408970Y-54243695D01*
X225784899Y-54771943D01*
X226135655Y-55318539D01*
X226460387Y-55882629D01*
X226758240Y-56463361D01*
X227028362Y-57059881D01*
X227269899Y-57671337D01*
X227481999Y-58296876D01*
X227663809Y-58935643D01*
X227814476Y-59586788D01*
X227933146Y-60249455D01*
X228018966Y-60922793D01*
X228071084Y-61605948D01*
X228088646Y-62298067D01*
X228088646Y-88855886D01*
X228082808Y-89085871D01*
X228065485Y-89312881D01*
X228036958Y-89536633D01*
X227997514Y-89756842D01*
X227947434Y-89973225D01*
X227887002Y-90185498D01*
X227816503Y-90393378D01*
X227736221Y-90596580D01*
X227646438Y-90794821D01*
X227547438Y-90987818D01*
X227439506Y-91175286D01*
X227322925Y-91356942D01*
X227197978Y-91532502D01*
X227064950Y-91701683D01*
X226924123Y-91864201D01*
X226775783Y-92019772D01*
X226620212Y-92168112D01*
X226457694Y-92308938D01*
X226288513Y-92441966D01*
X226112952Y-92566913D01*
X225931296Y-92683494D01*
X225743827Y-92791426D01*
X225550831Y-92890425D01*
X225352589Y-92980207D01*
X225149387Y-93060490D01*
X224941508Y-93130988D01*
X224729235Y-93191419D01*
X224512852Y-93241499D01*
X224292643Y-93280944D01*
X224068892Y-93309470D01*
X223841882Y-93326794D01*
X223611897Y-93332631D01*
X223381912Y-93326794D01*
X223154902Y-93309470D01*
X222931151Y-93280944D01*
X222710942Y-93241499D01*
X222494559Y-93191419D01*
X222282286Y-93130988D01*
X222074406Y-93060490D01*
X221871204Y-92980207D01*
X221672963Y-92890425D01*
X221479966Y-92791426D01*
X221292498Y-92683494D01*
X221110841Y-92566913D01*
X220935281Y-92441966D01*
X220766100Y-92308938D01*
X220603582Y-92168112D01*
X220448011Y-92019772D01*
X220299670Y-91864201D01*
X220158844Y-91701683D01*
X220025816Y-91532502D01*
X219900869Y-91356942D01*
X219784288Y-91175286D01*
X219676356Y-90987818D01*
X219577356Y-90794821D01*
X219487574Y-90596580D01*
X219407291Y-90393378D01*
X219336792Y-90185498D01*
X219276361Y-89973225D01*
X219226281Y-89756842D01*
X219186836Y-89536633D01*
X219158310Y-89312881D01*
X219140986Y-89085871D01*
X219135149Y-88855886D01*
X219135149Y-62300191D01*
X219129262Y-62068042D01*
X219111791Y-61838906D01*
X219083023Y-61613071D01*
X219043243Y-61390821D01*
X218992737Y-61172442D01*
X218931789Y-60958220D01*
X218860686Y-60748440D01*
X218779714Y-60543389D01*
X218689158Y-60343351D01*
X218589304Y-60148612D01*
X218480436Y-59959459D01*
X218362842Y-59776175D01*
X218236807Y-59599049D01*
X218102616Y-59428364D01*
X217960555Y-59264406D01*
X217810909Y-59107462D01*
X217653965Y-58957816D01*
X217490008Y-58815755D01*
X217319323Y-58681564D01*
X217142196Y-58555529D01*
X216958913Y-58437935D01*
X216769759Y-58329068D01*
X216575021Y-58229214D01*
X216374983Y-58138658D01*
X216169932Y-58057685D01*
X215960152Y-57986583D01*
X215745931Y-57925635D01*
X215527552Y-57875129D01*
X215305303Y-57835348D01*
X215079468Y-57806581D01*
X214850333Y-57789110D01*
X214618184Y-57783223D01*
X214386035Y-57789110D01*
X214156900Y-57806581D01*
X213931065Y-57835349D01*
X213708815Y-57875129D01*
X213490436Y-57925636D01*
X213276215Y-57986583D01*
X213066435Y-58057686D01*
X212861384Y-58138658D01*
X212661346Y-58229215D01*
X212466607Y-58329069D01*
X212277454Y-58437936D01*
X212094171Y-58555531D01*
X211917044Y-58681566D01*
X211746359Y-58815757D01*
X211582402Y-58957818D01*
X211425457Y-59107464D01*
X211275812Y-59264409D01*
X211133751Y-59428366D01*
X210999560Y-59599051D01*
X210873525Y-59776178D01*
X210755931Y-59959461D01*
X210647064Y-60148615D01*
X210547210Y-60343354D01*
X210456653Y-60543391D01*
X210375681Y-60748443D01*
X210304579Y-60958222D01*
X210243631Y-61172444D01*
X210193125Y-61390823D01*
X210153345Y-61613072D01*
X210124576Y-61838907D01*
X210107106Y-62068042D01*
X210101219Y-62300191D01*
X210101219Y-86231221D01*
X210095214Y-86537956D01*
X210077312Y-86840872D01*
X210047685Y-87139749D01*
X210006502Y-87434363D01*
X209890157Y-88009920D01*
X209729644Y-88565771D01*
X209526331Y-89100140D01*
X209281584Y-89611255D01*
X208996772Y-90097342D01*
X208673261Y-90556628D01*
X208312420Y-90987339D01*
X207915614Y-91387701D01*
X207484213Y-91755941D01*
X207019583Y-92090286D01*
X206523091Y-92388961D01*
X205996105Y-92650194D01*
X205721604Y-92766215D01*
X205439992Y-92872210D01*
X205151441Y-92967958D01*
X204856120Y-93053237D01*
X204591942Y-93119513D01*
X204325036Y-93177032D01*
X204055648Y-93225770D01*
X203784029Y-93265702D01*
X203510425Y-93296802D01*
X203235084Y-93319047D01*
X202958255Y-93332413D01*
X202680186Y-93336873D01*
X202058692Y-93314686D01*
X201441039Y-93248969D01*
X200829383Y-93140992D01*
X200225878Y-92992021D01*
X199632679Y-92803326D01*
X199051942Y-92576175D01*
X198485820Y-92311835D01*
X197936470Y-92011574D01*
X197406046Y-91676662D01*
X196896702Y-91308365D01*
X196410595Y-90907953D01*
X195949878Y-90476693D01*
X195516706Y-90015853D01*
X195113236Y-89526702D01*
X194741620Y-89010508D01*
X194404015Y-88468538D01*
X194363169Y-88396339D01*
X194343107Y-88359706D01*
X194323318Y-88322750D01*
X194303826Y-88285498D01*
X194284658Y-88247973D01*
X194265836Y-88210201D01*
X194247386Y-88172206D01*
X180230821Y-59046874D01*
X164950603Y-90794753D01*
X164848845Y-90993600D01*
X164738208Y-91185980D01*
X164618939Y-91371675D01*
X164491286Y-91550468D01*
X164355497Y-91722142D01*
X164211820Y-91886481D01*
X164060504Y-92043266D01*
X163901795Y-92192282D01*
X163735943Y-92333310D01*
X163563195Y-92466134D01*
X163383800Y-92590538D01*
X163198004Y-92706303D01*
X163006058Y-92813212D01*
X162808207Y-92911050D01*
X162604701Y-92999598D01*
X162395787Y-93078640D01*
X162183291Y-93147076D01*
X161969089Y-93204757D01*
X161753511Y-93251692D01*
X161536884Y-93287889D01*
X161319537Y-93313358D01*
X161101800Y-93328108D01*
X160884001Y-93332150D01*
X160666468Y-93325491D01*
X160449531Y-93308141D01*
X160233517Y-93280110D01*
X160018757Y-93241407D01*
X159805577Y-93192042D01*
X159594308Y-93132022D01*
X159385278Y-93061359D01*
X159178815Y-92980060D01*
X158975249Y-92888137D01*
X158776401Y-92786379D01*
X158584022Y-92675742D01*
X158398327Y-92556473D01*
X158219535Y-92428820D01*
X158047861Y-92293031D01*
X157883523Y-92149354D01*
X157726737Y-91998037D01*
X157577722Y-91839329D01*
X157436694Y-91673477D01*
X157303870Y-91500729D01*
X157179467Y-91321334D01*
X157063701Y-91135538D01*
X156956791Y-90943591D01*
X156858954Y-90745741D01*
X156770405Y-90542235D01*
X156691362Y-90333321D01*
X156622599Y-90120825D01*
X156564723Y-89906623D01*
X156517705Y-89691045D01*
X156481516Y-89474418D01*
X156456131Y-89257073D01*
X156441519Y-89039336D01*
X156437654Y-88821537D01*
X156444508Y-88604005D01*
X156462053Y-88387068D01*
X156490261Y-88171055D01*
X156529103Y-87956295D01*
X156578553Y-87743116D01*
X156638582Y-87531848D01*
X156709162Y-87322818D01*
X156790266Y-87116355D01*
X156881865Y-86912789D01*
X172526146Y-54413488D01*
X172563422Y-54338874D01*
X172602085Y-54264262D01*
X172641938Y-54189649D01*
X172682780Y-54115038D01*
X173028486Y-53551537D01*
X173395787Y-53019559D01*
X173783658Y-52519772D01*
X174191071Y-52052842D01*
X174617001Y-51619435D01*
X175060421Y-51220219D01*
X175520306Y-50855859D01*
X175995628Y-50527023D01*
X176485362Y-50234377D01*
X176735313Y-50101834D01*
X176988482Y-49978588D01*
X177244740Y-49864722D01*
X177503960Y-49760321D01*
X177766013Y-49665468D01*
X178030771Y-49580245D01*
X178298105Y-49504736D01*
X178567888Y-49439025D01*
X178839991Y-49383195D01*
X179114285Y-49337329D01*
X179390643Y-49301510D01*
X179668936Y-49275822D01*
X179949036Y-49260348D01*
X180230815Y-49255171D01*
X180776498Y-49274835D01*
X181315908Y-49333401D01*
X181848032Y-49430235D01*
X182371855Y-49564701D01*
X182886364Y-49736163D01*
X183390545Y-49943986D01*
X183883385Y-50187533D01*
X184363868Y-50466170D01*
X184830982Y-50779260D01*
X185283712Y-51126169D01*
X185721045Y-51506260D01*
X186141967Y-51918897D01*
X186545464Y-52363446D01*
X186930521Y-52839271D01*
X187296126Y-53345735D01*
X187641264Y-53882204D01*
X187682457Y-53947622D01*
X187721962Y-54012247D01*
X187759880Y-54076276D01*
X187796310Y-54139908D01*
X187831350Y-54203342D01*
X187865101Y-54266777D01*
X187897662Y-54330409D01*
X187929131Y-54394439D01*
X201147716Y-81860299D01*
X201147716Y-62298067D01*
X201165278Y-61605948D01*
X201217396Y-60922793D01*
X201303216Y-60249455D01*
X201421886Y-59586788D01*
X201572552Y-58935643D01*
X201754362Y-58296876D01*
X201966462Y-57671337D01*
X202208000Y-57059881D01*
X202478122Y-56463361D01*
X202775975Y-55882629D01*
X203100706Y-55318539D01*
X203451462Y-54771943D01*
X203827391Y-54243695D01*
X204227638Y-53734648D01*
X204651352Y-53245655D01*
X205097678Y-52777568D01*
X205565765Y-52331242D01*
X206054758Y-51907528D01*
X206563805Y-51507281D01*
X207092053Y-51131352D01*
X207638649Y-50780596D01*
X208202739Y-50455864D01*
X208783471Y-50158011D01*
X209379992Y-49887889D01*
X209991448Y-49646352D01*
X210616987Y-49434252D01*
X211255755Y-49252442D01*
X211906900Y-49101775D01*
X212569567Y-48983105D01*
X213242906Y-48897285D01*
X213926061Y-48845167D01*
X214618181Y-48827605D01*
X215310300Y-48845167D01*
G37*
G36*
X135422971Y-85285500D02*
G01*
X135604612Y-85299355D01*
X135783641Y-85322171D01*
X135959832Y-85353719D01*
X136132958Y-85393774D01*
X136302793Y-85442109D01*
X136469109Y-85498497D01*
X136631680Y-85562711D01*
X136790279Y-85634525D01*
X136944679Y-85713711D01*
X137094654Y-85800044D01*
X137239977Y-85893296D01*
X137380421Y-85993240D01*
X137515760Y-86099650D01*
X137645766Y-86212300D01*
X137770213Y-86330962D01*
X137888875Y-86455410D01*
X138001524Y-86585416D01*
X138107934Y-86720755D01*
X138207879Y-86861200D01*
X138301130Y-87006523D01*
X138387463Y-87156498D01*
X138466649Y-87310899D01*
X138538462Y-87469498D01*
X138602676Y-87632069D01*
X138659064Y-87798385D01*
X138707398Y-87968220D01*
X138747453Y-88141346D01*
X138779002Y-88317537D01*
X138801817Y-88496567D01*
X138815673Y-88678208D01*
X138820342Y-88862233D01*
X138815673Y-89046258D01*
X138801817Y-89227899D01*
X138779001Y-89406928D01*
X138747453Y-89583119D01*
X138707398Y-89756245D01*
X138659063Y-89926079D01*
X138602675Y-90092395D01*
X138538460Y-90254966D01*
X138466647Y-90413565D01*
X138387460Y-90567966D01*
X138301127Y-90717941D01*
X138207875Y-90863264D01*
X138107931Y-91003709D01*
X138001520Y-91139048D01*
X137888871Y-91269055D01*
X137770209Y-91393502D01*
X137645761Y-91512164D01*
X137515755Y-91624814D01*
X137380416Y-91731225D01*
X137239972Y-91831169D01*
X137094648Y-91924422D01*
X136944674Y-92010754D01*
X136790273Y-92089941D01*
X136631674Y-92161755D01*
X136469104Y-92225969D01*
X136302788Y-92282357D01*
X136132954Y-92330692D01*
X135959829Y-92370747D01*
X135783638Y-92402296D01*
X135604610Y-92425111D01*
X135422970Y-92438967D01*
X135238945Y-92443636D01*
X135054919Y-92438967D01*
X134873279Y-92425111D01*
X134694249Y-92402296D01*
X134518058Y-92370747D01*
X134344932Y-92330692D01*
X134175097Y-92282357D01*
X134008781Y-92225970D01*
X133846211Y-92161755D01*
X133687612Y-92089942D01*
X133533211Y-92010755D01*
X133383236Y-91924423D01*
X133237913Y-91831171D01*
X133097469Y-91731227D01*
X132962131Y-91624816D01*
X132832124Y-91512167D01*
X132707677Y-91393505D01*
X132589015Y-91269057D01*
X132476366Y-91139050D01*
X132369956Y-91003711D01*
X132270012Y-90863267D01*
X132176760Y-90717944D01*
X132090428Y-90567969D01*
X132011241Y-90413568D01*
X131939428Y-90254969D01*
X131875214Y-90092398D01*
X131818827Y-89926082D01*
X131770492Y-89756247D01*
X131730437Y-89583121D01*
X131698888Y-89406929D01*
X131676073Y-89227900D01*
X131662217Y-89046259D01*
X131657549Y-88862233D01*
X131662217Y-88678208D01*
X131676073Y-88496567D01*
X131698888Y-88317537D01*
X131730437Y-88141346D01*
X131770492Y-87968220D01*
X131818827Y-87798385D01*
X131875214Y-87632069D01*
X131939428Y-87469498D01*
X132011241Y-87310899D01*
X132090428Y-87156498D01*
X132176760Y-87006523D01*
X132270012Y-86861200D01*
X132369956Y-86720755D01*
X132476366Y-86585416D01*
X132589015Y-86455410D01*
X132707677Y-86330962D01*
X132832124Y-86212300D01*
X132962131Y-86099650D01*
X133097469Y-85993240D01*
X133237913Y-85893296D01*
X133383236Y-85800044D01*
X133533211Y-85713711D01*
X133687612Y-85634525D01*
X133846211Y-85562711D01*
X134008781Y-85498497D01*
X134175097Y-85442109D01*
X134344932Y-85393774D01*
X134518058Y-85353719D01*
X134694249Y-85322171D01*
X134873279Y-85299355D01*
X135054919Y-85285500D01*
X135238945Y-85280831D01*
X135422971Y-85285500D01*
G37*
G36*
X147855673Y-84389207D02*
G01*
X148082683Y-84406531D01*
X148306434Y-84435057D01*
X148526643Y-84474502D01*
X148743026Y-84524582D01*
X148955299Y-84585013D01*
X149163179Y-84655512D01*
X149366382Y-84735795D01*
X149564623Y-84825577D01*
X149757620Y-84924577D01*
X149945089Y-85032509D01*
X150126746Y-85149090D01*
X150302307Y-85274037D01*
X150471488Y-85407065D01*
X150634007Y-85547891D01*
X150789578Y-85696231D01*
X150937919Y-85851802D01*
X151078746Y-86014320D01*
X151211775Y-86183501D01*
X151336722Y-86359062D01*
X151453304Y-86540718D01*
X151561236Y-86728186D01*
X151660236Y-86921183D01*
X151750019Y-87119424D01*
X151830302Y-87322626D01*
X151900802Y-87530505D01*
X151961233Y-87742778D01*
X152011313Y-87959161D01*
X152050758Y-88179369D01*
X152079285Y-88403121D01*
X152096608Y-88630131D01*
X152102446Y-88860115D01*
X152096608Y-89090101D01*
X152079285Y-89317111D01*
X152050759Y-89540863D01*
X152011314Y-89761072D01*
X151961234Y-89977455D01*
X151900803Y-90189728D01*
X151830304Y-90397608D01*
X151750021Y-90600810D01*
X151660238Y-90799052D01*
X151561239Y-90992049D01*
X151453307Y-91179517D01*
X151336725Y-91361174D01*
X151211778Y-91536734D01*
X151078750Y-91705916D01*
X150937924Y-91868434D01*
X150789583Y-92024005D01*
X150634012Y-92172345D01*
X150471493Y-92313172D01*
X150302312Y-92446200D01*
X150126751Y-92571146D01*
X149945094Y-92687728D01*
X149757626Y-92795660D01*
X149564629Y-92894659D01*
X149366387Y-92984442D01*
X149163184Y-93064725D01*
X148955304Y-93135224D01*
X148743030Y-93195655D01*
X148526647Y-93245735D01*
X148306437Y-93285180D01*
X148082685Y-93313706D01*
X147855674Y-93331029D01*
X147625688Y-93336867D01*
X147395703Y-93331029D01*
X147168693Y-93313706D01*
X146944942Y-93285180D01*
X146724733Y-93245735D01*
X146508350Y-93195655D01*
X146296077Y-93135224D01*
X146088197Y-93064725D01*
X145884995Y-92984442D01*
X145686753Y-92894659D01*
X145493756Y-92795660D01*
X145306287Y-92687728D01*
X145124631Y-92571146D01*
X144949070Y-92446200D01*
X144779888Y-92313172D01*
X144617370Y-92172345D01*
X144461798Y-92024005D01*
X144313457Y-91868434D01*
X144172630Y-91705916D01*
X144039602Y-91536734D01*
X143914654Y-91361174D01*
X143798073Y-91179517D01*
X143690140Y-90992049D01*
X143591140Y-90799052D01*
X143501357Y-90600810D01*
X143421074Y-90397608D01*
X143350575Y-90189728D01*
X143290143Y-89977455D01*
X143240063Y-89761072D01*
X143200618Y-89540863D01*
X143172092Y-89317111D01*
X143154768Y-89090101D01*
X143148930Y-88860115D01*
X143154768Y-88630131D01*
X143172092Y-88403121D01*
X143200618Y-88179369D01*
X143240063Y-87959161D01*
X143290143Y-87742778D01*
X143350574Y-87530505D01*
X143421073Y-87322626D01*
X143501355Y-87119424D01*
X143591138Y-86921183D01*
X143690138Y-86728186D01*
X143798070Y-86540718D01*
X143914651Y-86359062D01*
X144039598Y-86183501D01*
X144172626Y-86014320D01*
X144313453Y-85851802D01*
X144461794Y-85696231D01*
X144617365Y-85547891D01*
X144779883Y-85407065D01*
X144949065Y-85274037D01*
X145124625Y-85149090D01*
X145306282Y-85032509D01*
X145493751Y-84924577D01*
X145686748Y-84825577D01*
X145884990Y-84735795D01*
X146088192Y-84655512D01*
X146296072Y-84585013D01*
X146508346Y-84524582D01*
X146724730Y-84474502D01*
X146944939Y-84435057D01*
X147168691Y-84406531D01*
X147395702Y-84389207D01*
X147625688Y-84383370D01*
X147855673Y-84389207D01*
G37*
%LPC*%
D11*
%TO.C,RV11*%
X212050000Y-97828998D03*
D12*
X207050000Y-95328998D03*
X212050000Y-92828998D03*
%TD*%
D11*
%TO.C,RV5*%
X212050000Y-57902996D03*
D12*
X207050000Y-55402996D03*
X212050000Y-52902996D03*
%TD*%
D13*
%TO.C,C7*%
X177800000Y-88265000D03*
X172800000Y-88265000D03*
%TD*%
%TO.C,R3*%
X187960000Y-46512996D03*
D14*
X187960000Y-38892996D03*
%TD*%
D13*
%TO.C,C6*%
X155020000Y-88265000D03*
X160020000Y-88265000D03*
%TD*%
D15*
%TO.C,J9*%
X221615000Y-124460000D03*
X221615000Y-119458998D03*
%TD*%
D16*
%TO.C,U1*%
X142720000Y-33020000D03*
X142720000Y-63020000D03*
X172720000Y-33020000D03*
X172720000Y-63020000D03*
D17*
X148845000Y-26520000D03*
D18*
X151385000Y-26520000D03*
X153925000Y-26520000D03*
X156465000Y-26520000D03*
X159005000Y-26520000D03*
X161545000Y-26520000D03*
X164085000Y-26520000D03*
X166625000Y-26520000D03*
%TD*%
D11*
%TO.C,RV13*%
X212050000Y-111163998D03*
D12*
X207050000Y-108663998D03*
X212050000Y-106163998D03*
%TD*%
D19*
%TO.C,REF\u002A\u002A*%
X119380000Y-124460000D03*
%TD*%
D13*
%TO.C,C5*%
X160020000Y-80010000D03*
X155020000Y-80010000D03*
%TD*%
D15*
%TO.C,J5*%
X221615000Y-71198998D03*
X221615000Y-66197996D03*
%TD*%
D13*
%TO.C,R7*%
X187960000Y-72547996D03*
D14*
X187960000Y-64927996D03*
%TD*%
D11*
%TO.C,RV1*%
X212090000Y-32502996D03*
D12*
X207090000Y-30002996D03*
X212090000Y-27502996D03*
%TD*%
D15*
%TO.C,J2*%
X221615000Y-32503497D03*
X221615000Y-27502495D03*
%TD*%
%TO.C,J7*%
X221615000Y-97829499D03*
X221615000Y-92828497D03*
%TD*%
D11*
%TO.C,RV12*%
X199350000Y-97828998D03*
D12*
X194350000Y-95328998D03*
X199350000Y-92828998D03*
%TD*%
D17*
%TO.C,J1*%
X134620000Y-38100000D03*
D18*
X134620000Y-40640000D03*
X134620000Y-43180000D03*
X134620000Y-45720000D03*
X134620000Y-48260000D03*
X134620000Y-50800000D03*
X134620000Y-53340000D03*
X134620000Y-55880000D03*
X134620000Y-58420000D03*
X134620000Y-60960000D03*
X134620000Y-63500000D03*
X134620000Y-66040000D03*
X134620000Y-68580000D03*
X134620000Y-71120000D03*
X134620000Y-73660000D03*
X134620000Y-76200000D03*
X134620000Y-78740000D03*
X134620000Y-81280000D03*
X134620000Y-83820000D03*
X134620000Y-86360000D03*
X134620000Y-88900000D03*
X134620000Y-91440000D03*
X134620000Y-93980000D03*
X134620000Y-96520000D03*
X134620000Y-99060000D03*
X134620000Y-101600000D03*
X134620000Y-104140000D03*
X134620000Y-106680000D03*
X134620000Y-109220000D03*
X134620000Y-111760000D03*
X134620000Y-114300000D03*
X134620000Y-116840000D03*
X134620000Y-119380000D03*
X134620000Y-121920000D03*
X134620000Y-124460000D03*
%TD*%
D13*
%TO.C,C8*%
X177800000Y-79375000D03*
X172800000Y-79375000D03*
%TD*%
D11*
%TO.C,RV8*%
X199390000Y-71277996D03*
D12*
X194390000Y-68777996D03*
X199390000Y-66277996D03*
%TD*%
D13*
%TO.C,R13*%
X187960000Y-111838998D03*
D14*
X187960000Y-104218998D03*
%TD*%
D19*
%TO.C,REF\u002A\u002A*%
X230505000Y-123825000D03*
%TD*%
D13*
%TO.C,C9*%
X153710000Y-100965000D03*
X158710000Y-100965000D03*
%TD*%
%TO.C,C11*%
X177760000Y-113030000D03*
X172760000Y-113030000D03*
%TD*%
%TO.C,R9*%
X187960000Y-85168998D03*
D14*
X187960000Y-77548998D03*
%TD*%
D20*
%TO.C,J10*%
X142875000Y-123190000D03*
D21*
X142875000Y-120650000D03*
X145415000Y-123190000D03*
X145415000Y-120650000D03*
X147954999Y-123190000D03*
X147955000Y-120650000D03*
X150495000Y-123190000D03*
X150495000Y-120650000D03*
%TD*%
D11*
%TO.C,RV9*%
X212050000Y-83858998D03*
D12*
X207050000Y-81358998D03*
X212050000Y-78858998D03*
%TD*%
D15*
%TO.C,J8*%
X221615000Y-111164499D03*
X221615000Y-106163497D03*
%TD*%
D13*
%TO.C,C10*%
X158710000Y-108585000D03*
X153710000Y-108585000D03*
%TD*%
D11*
%TO.C,RV7*%
X212050000Y-71237996D03*
D12*
X207050000Y-68737996D03*
X212050000Y-66237996D03*
%TD*%
D11*
%TO.C,RV3*%
X212090000Y-45202996D03*
D12*
X207090000Y-42702996D03*
X212090000Y-40202996D03*
%TD*%
D11*
%TO.C,RV6*%
X199350000Y-57902996D03*
D12*
X194350000Y-55402996D03*
X199350000Y-52902996D03*
%TD*%
D13*
%TO.C,R1*%
X187960000Y-33812996D03*
D14*
X187960000Y-26192996D03*
%TD*%
D11*
%TO.C,RV10*%
X199350000Y-83858998D03*
D12*
X194350000Y-81358998D03*
X199350000Y-78858998D03*
%TD*%
D11*
%TO.C,RV4*%
X199350000Y-45202996D03*
D12*
X194350000Y-42702996D03*
X199350000Y-40202996D03*
%TD*%
D11*
%TO.C,RV16*%
X198755000Y-124538998D03*
D12*
X193755000Y-122038998D03*
X198755000Y-119538998D03*
%TD*%
D11*
%TO.C,RV14*%
X199350000Y-111163998D03*
D12*
X194350000Y-108663998D03*
X199350000Y-106163998D03*
%TD*%
D13*
%TO.C,R11*%
X187960000Y-98503998D03*
D14*
X187960000Y-90883998D03*
%TD*%
D17*
%TO.C,J12*%
X127635000Y-26670000D03*
D18*
X130175000Y-26670000D03*
X132714999Y-26670000D03*
X135255000Y-26670000D03*
%TD*%
D11*
%TO.C,RV15*%
X212090000Y-124538998D03*
D12*
X207090000Y-122038998D03*
X212090000Y-119538998D03*
%TD*%
D13*
%TO.C,R15*%
X187960000Y-125730000D03*
D14*
X187960000Y-118110000D03*
%TD*%
D15*
%TO.C,J3*%
X221397000Y-44701497D03*
X221397000Y-39700495D03*
%TD*%
D20*
%TO.C,J11*%
X162560000Y-123307500D03*
D21*
X162560000Y-120767500D03*
X165100000Y-123307500D03*
X165100000Y-120767500D03*
X167640000Y-123307500D03*
X167640000Y-120767500D03*
X170180000Y-123307500D03*
X170180000Y-120767500D03*
X172720000Y-123307500D03*
X172720000Y-120767500D03*
X175260000Y-123307500D03*
X175260000Y-120767500D03*
X177800000Y-123307500D03*
X177800000Y-120767500D03*
X180340000Y-123307500D03*
X180340000Y-120767500D03*
%TD*%
D13*
%TO.C,R5*%
X187960000Y-60960000D03*
D14*
X187960000Y-53340000D03*
%TD*%
D13*
%TO.C,C12*%
X177760000Y-103505000D03*
X172760000Y-103505000D03*
%TD*%
D19*
%TO.C,REF\u002A\u002A*%
X120015000Y-27305000D03*
%TD*%
%TO.C,REF\u002A\u002A*%
X180975000Y-27305000D03*
%TD*%
D15*
%TO.C,J6*%
X221615000Y-84494499D03*
X221615000Y-79493497D03*
%TD*%
D11*
%TO.C,RV2*%
X199350000Y-32502996D03*
D12*
X194350000Y-30002996D03*
X199350000Y-27502996D03*
%TD*%
D19*
%TO.C,REF\u002A\u002A*%
X229870000Y-27940000D03*
%TD*%
D15*
%TO.C,J4*%
X221615000Y-57903497D03*
X221615000Y-52902495D03*
%TD*%
%LPD*%
M02*
