M48
; DRILL file {KiCad 8.0.8} date 2025-02-19T17:07:23+0000
; FORMAT={-:-/ absolute / inch / decimal}
; #@! TF.CreationDate,2025-02-19T17:07:23+00:00
; #@! TF.GenerationSoftware,Kicad,Pcbnew,8.0.8
; #@! TF.FileFunction,Plated,1,4,PTH
FMAT,2
INCH
; #@! TA.AperFunction,Plated,PTH,ViaDrill
T1C0.0118
; #@! TA.AperFunction,Plated,PTH,ComponentDrill
T2C0.0315
; #@! TA.AperFunction,Plated,PTH,ComponentDrill
T3C0.0394
; #@! TA.AperFunction,Plated,PTH,ComponentDrill
T4C0.0433
; #@! TA.AperFunction,Plated,PTH,ComponentDrill
T5C0.0512
%
G90
G05
T1
X5.075Y-1.15
X5.0837Y-4.7785
X5.1378Y-4.9606
X5.1673Y-4.7598
X5.2165Y-4.626
X5.3937Y-4.7047
X5.425Y-1.225
X5.4528Y-4.8819
X5.4823Y-4.6811
X5.5315Y-3.3169
X5.5315Y-4.935
X5.5413Y-4.6457
X5.5709Y-4.9508
X5.6299Y-3.361
X5.6299Y-3.4122
X5.6693Y-3.9764
X5.6988Y-3.435
X5.7087Y-4.1732
X5.7874Y-4.2717
X5.7874Y-4.3602
X5.825Y-1.8209
X5.825Y-4.425
X5.9Y-1.775
X5.9085Y-3.35
X5.9085Y-3.3886
X5.95Y-3.2
X5.95Y-3.4
X5.95Y-4.6
X6.0Y-3.45
X6.025Y-3.0
X6.025Y-3.2283
X6.075Y-4.55
X6.25Y-2.9331
X6.325Y-3.0739
X6.35Y-3.4
X6.375Y-3.175
X6.375Y-3.35
X6.375Y-4.2279
X6.375Y-4.2594
X6.425Y-2.8543
X6.437Y-4.3701
X6.5Y-3.175
X6.5Y-3.25
X6.5Y-3.35
X6.5Y-4.175
X6.5089Y-4.3179
X6.525Y-2.95
X6.525Y-3.275
X6.525Y-3.375
X6.5354Y-4.3937
X6.575Y-3.325
X6.575Y-3.9764
X6.6043Y-4.439
X6.6142Y-3.5335
X6.621Y-4.2461
X6.65Y-3.15
X6.675Y-2.775
X6.7Y-3.15
X6.7Y-3.4515
X6.7126Y-4.5484
X6.7346Y-4.252
X6.7461Y-4.5484
X6.75Y-3.3
X6.825Y-2.675
X6.9193Y-2.5886
X7.0079Y-2.1654
X7.05Y-2.825
X7.0571Y-4.3012
X7.0984Y-2.0492
X7.1161Y-1.939
X7.185Y-4.0846
X7.1949Y-4.813
X7.475Y-3.3885
X7.525Y-3.475
X7.5394Y-2.1063
X7.5394Y-4.3898
X7.5492Y-3.6713
X7.5787Y-1.5945
X7.625Y-4.2
X7.675Y-3.1
X7.7461Y-3.1299
X7.75Y-3.25
X7.75Y-4.2
X7.775Y-1.45
X7.775Y-3.3694
X7.7953Y-4.5866
X7.8543Y-3.4515
X7.8672Y-4.2528
X7.875Y-2.425
X8.05Y-4.275
X8.075Y-3.275
X8.0906Y-3.5236
X8.125Y-3.3458
X8.2Y-4.175
T2
X6.0516Y-3.975
X6.0516Y-4.275
X6.1031Y-3.15
X6.1031Y-3.475
X6.2484Y-3.975
X6.2484Y-4.275
X6.3Y-3.15
X6.3Y-3.475
X6.8016Y-4.075
X6.8016Y-4.45
X6.8031Y-3.125
X6.8031Y-3.475
X6.9984Y-4.075
X6.9984Y-4.45
X7.0Y-3.125
X7.0Y-3.475
X7.4Y-1.0312
X7.4Y-1.3312
X7.4Y-1.5312
X7.4Y-1.8312
X7.4Y-2.1
X7.4Y-2.4
X7.4Y-2.5562
X7.4Y-2.8562
X7.4Y-3.0531
X7.4Y-3.3531
X7.4Y-3.5781
X7.4Y-3.8781
X7.4Y-4.1031
X7.4Y-4.4031
X7.4Y-4.65
X7.4Y-4.95
T3
X5.025Y-1.05
X5.125Y-1.05
X5.225Y-1.05
X5.3Y-1.5
X5.3Y-1.6
X5.3Y-1.7
X5.3Y-1.8
X5.3Y-1.9
X5.3Y-2.0
X5.3Y-2.1
X5.3Y-2.2
X5.3Y-2.3
X5.3Y-2.4
X5.3Y-2.5
X5.3Y-2.6
X5.3Y-2.7
X5.3Y-2.8
X5.3Y-2.9
X5.3Y-3.0
X5.3Y-3.1
X5.3Y-3.2
X5.3Y-3.3
X5.3Y-3.4
X5.3Y-3.5
X5.3Y-3.6
X5.3Y-3.7
X5.3Y-3.8
X5.3Y-3.9
X5.3Y-4.0
X5.3Y-4.1
X5.3Y-4.2
X5.3Y-4.3
X5.3Y-4.4
X5.3Y-4.5
X5.3Y-4.6
X5.3Y-4.7
X5.3Y-4.8
X5.3Y-4.9
X5.325Y-1.05
X5.625Y-4.75
X5.625Y-4.85
X5.725Y-4.75
X5.725Y-4.85
X5.825Y-4.85
X5.825Y-4.75
X5.86Y-1.0441
X5.925Y-4.75
X5.925Y-4.85
X5.96Y-1.0441
X6.06Y-1.0441
X6.16Y-1.0441
X6.26Y-1.0441
X6.36Y-1.0441
X6.4Y-4.7546
X6.4Y-4.8546
X6.46Y-1.0441
X6.5Y-4.7546
X6.5Y-4.8546
X6.56Y-1.0441
X6.6Y-4.7546
X6.6Y-4.8546
X6.7Y-4.7546
X6.7Y-4.8546
X6.8Y-4.7546
X6.8Y-4.8546
X6.9Y-4.7546
X6.9Y-4.8546
X7.0Y-4.7546
X7.0Y-4.8546
X7.1Y-4.7546
X7.1Y-4.8546
T4
X7.6281Y-4.8047
X7.6516Y-1.1812
X7.6516Y-1.6812
X7.6516Y-2.1812
X7.6516Y-3.2031
X7.6516Y-3.7531
X7.6516Y-4.2781
X7.6531Y-2.7078
X7.825Y-4.7063
X7.825Y-4.9031
X7.8484Y-1.0828
X7.8484Y-1.2796
X7.8484Y-1.5828
X7.8484Y-1.7796
X7.8484Y-2.0828
X7.8484Y-2.2796
X7.8484Y-3.1047
X7.8484Y-3.3015
X7.8484Y-3.6547
X7.8484Y-3.8515
X7.8484Y-4.1797
X7.8484Y-4.3765
X7.85Y-2.6094
X7.85Y-2.8062
X8.1516Y-2.1812
X8.1516Y-2.7062
X8.1516Y-3.2031
X8.1516Y-3.7531
X8.1516Y-4.2781
X8.1531Y-1.1812
X8.1531Y-1.6812
X8.1531Y-4.8047
X8.3484Y-2.0828
X8.3484Y-2.2796
X8.3484Y-2.6078
X8.3484Y-2.8046
X8.3484Y-3.1047
X8.3484Y-3.3015
X8.3484Y-3.6547
X8.3484Y-3.8515
X8.3484Y-4.1797
X8.3484Y-4.3765
X8.35Y-1.0828
X8.35Y-1.2796
X8.35Y-1.5828
X8.35Y-1.7796
X8.35Y-4.7063
X8.35Y-4.9031
T5
X8.7164Y-1.563
X8.7164Y-1.7599
X8.725Y-1.0828
X8.725Y-1.2797
X8.725Y-2.0828
X8.725Y-2.2797
X8.725Y-2.6062
X8.725Y-2.8031
X8.725Y-3.1297
X8.725Y-3.3266
X8.725Y-3.6547
X8.725Y-3.8516
X8.725Y-4.1797
X8.725Y-4.3766
X8.725Y-4.7031
X8.725Y-4.9
M30
